<?xml version="1.0" encoding="utf-8"?>
<!-- Generator: Adobe Illustrator 20.1.0, SVG Export Plug-In . SVG Version: 6.00 Build 0)  -->
<svg version="1.1" id="Layer_1" xmlns="http://www.w3.org/2000/svg" xmlns:xlink="http://www.w3.org/1999/xlink" x="0px" y="0px"
	 viewBox="0 0 512 512" style="enable-background:new 0 0 512 512;" xml:space="preserve">
<style type="text/css">
	.st0{fill:#2B2B2B;}
</style>
<path class="st0" d="M359.4,80C320,80,277.2,97.6,256,132.8C234.8,97.6,192,80,152.6,80C83.6,80,32,123.2,32,195.8
	c0,31.3,12.6,71.9,40.9,105.7c28.4,33.7,45.2,51.7,100.2,88C228,425.7,256,432,256,432s28-6.3,82.9-42.6
	c54.9-36.3,71.8-54.3,100.2-88c28.4-33.7,40.9-74.4,40.9-105.7C480,123.2,428.4,80,359.4,80z"/>
</svg>
